<svg fill="none" height="32" viewBox="0 0 32 32" width="32" xmlns="http://www.w3.org/2000/svg"><g fill="#ffffff"><path d="m17.67 6.31999c0-2.39-1.94-4.33-4.33-4.33s-4.34 1.94-4.34 4.33c0 .17.01.33.03.49l-.00114.0008c-.01465-.11947-.02372-.23904-.02721-.36289-.0011.03846-.00165.07666-.00165.1146v.25948l-3.0216 2.12712-3.0684 2.1509c-.57.4-.91 1.05-.91 1.75 0 1.18.96 2.14 2.14 2.14h3.83172c.41442 1.0768 1.02335 2.0464 1.77829 2.87l-1.21 4.73c-.05.2.1.4.3.4h2.15999c.42 0 .73-.2.87-.74l.61-2.35c1.2.58 2.53 1.1 3.93 1.1h.6301c-.6 0-1.0801.4489-1.0801 1.01s.48 1.01 1.08 1.01h5.2412c-1.2812 0-2.1718-1.3012-2.5781-2.02h.0348l.0133.0229c-.3051-.6087-.4769-1.2958-.4769-2.0229 0-2.4962 2.0239-4.52 4.52-4.52.2762 0 .5.2238.5.5 0 .2761-.2238.5-.5.5-1.9438 0-3.52 1.5761-3.52 3.52 0 1.9438 1.5762 3.52 3.52 3.52h3.1001c.1996 0 .394-.0222.5809-.0642-.5982.9401-1.6494 1.5643-2.8453 1.5643l-5.64-.0101c-1.65 0-2.99 1.34-2.99 2.99s1.34 2.99 2.98 2.99l4.02.01c.55 0 1-.44 1.01-1 0-.55-.45-1-1-1l-4.02-.01c-.55 0-.99-.44-.99-.99s.44-.99.99-.99l5.64.0101c2.96 0 5.37-2.4101 5.37-5.3701v-6.1812c0-.113-.019-.2218-.0539-.3233-.5584-5.2189-5.3713-9.08296-10.6261-7.94552l-1.6607.42708c.0071-.10142.0107-.20382.0107-.30707zm-1.9238.18752c0 1.37103-1.1114 2.48248-2.4825 2.48248-1.371 0-2.4825-1.11145-2.4825-2.48248 0-1.37104 1.1115-2.48249 2.4825-2.48249 1.3711 0 2.4825 1.11145 2.4825 2.48249zm-8.32088 5.99239c-.61028 0-1.10501-.4947-1.10501-1.105s.49473-1.105 1.10501-1.105 1.10501.4947 1.10501 1.105-.49473 1.105-1.10501 1.105zm-4.21534-.7299c.46.13.79.54.79 1.04 0 .51-.35.93-.82 1.05-.17-.3-.26-.65-.26-1.02 0-.38.1-.75.29-1.07z"/><path d="m8.0073 6.29788c.07208-1.32296.67992-2.9054 1.9085-3.99357-.49369-.19636-1.03214-.30431-1.5958-.30431-2.38587 0-4.32 1.93413-4.32 4.32 0 .85489.24832 1.65178.67676 2.32248z"/></g></svg>